<svg width="240" height="240" viewBox="0 0 240 240" fill="none" xmlns="http://www.w3.org/2000/svg">
<path fill-rule="evenodd" clip-rule="evenodd" d="M51 120H0C29.5372 80 59.0743 40 63 0H114C110.074 40 80.5372 80 51 120Z" fill="white"/>
<path fill-rule="evenodd" clip-rule="evenodd" d="M189 120H240C210.463 160 180.926 200 177 240H126C129.926 200 159.463 160 189 120Z" fill="white"/>
<path fill-rule="evenodd" clip-rule="evenodd" d="M114 240H63C70.8513 160 181.149 79.9999 189 0H240C232.149 79.9999 121.851 160 114 240Z" fill="white"/>
<path fill-rule="evenodd" clip-rule="evenodd" d="M51 240H0C7.85135 160 118.149 79.9999 126 0H177C169.149 79.9999 58.8513 160 51 240Z" fill="white"/>
</svg>
