<svg width="601" height="510" viewBox="0 0 601 510" fill="none" xmlns="http://www.w3.org/2000/svg">
  <rect width="601" height="510" fill="#0D0D0D" />
  <path d="M374 50H287" stroke="#3D3D3D" stroke-dasharray="2 4" />
  <path d="M416 461H403" stroke="#3D3D3D" stroke-dasharray="2 4" />
  <path d="M217 461H198" stroke="#3D3D3D" stroke-dasharray="2 4" />
  <path d="M498 126H300" stroke="#3D3D3D" stroke-dasharray="2 4" />
  <path d="M341 406H107" stroke="#3D3D3D" stroke-dasharray="2 4" />
  <path d="M376 50L368.5 55.1962V44.8038L376 50Z" fill="#3D3D3D" />
  <path d="M422 461L414.5 466.196V455.804L422 461Z" fill="#3D3D3D" />
  <path d="M384 24H577V74H384V24Z" stroke="#3D3D3D" stroke-dasharray="2 4" />
  <path
    d="M401.273 45.0909H402.545V47.6364H401.273V45.0909ZM402.545 47.6364H406.364V48.9091H402.545V47.6364ZM406.364 52.7273V54H402.545V52.7273H406.364ZM402.545 52.7273H401.273V51.4545H402.545V52.7273ZM406.364 48.9091H407.636V52.7273H406.364V48.9091ZM402.545 43.8182H406.364V45.0909H402.545V43.8182ZM406.364 45.0909H407.636V46.3636H406.364V45.0909ZM411.46 43.8182H412.732V46.3636H416.55V47.6364H412.732V52.7273H411.46V47.6364H410.187V46.3636H411.46V43.8182ZM412.732 52.7273H415.278V54H412.732V52.7273ZM415.278 51.4545H416.55V52.7273H415.278V51.4545ZM419.101 50.1818H420.374V52.7273H419.101V50.1818ZM420.374 52.7273H422.919V54H420.374V52.7273ZM422.919 51.4545H424.192V50.1818H420.374V48.9091H424.192V47.6364H425.464V54H424.192V52.7273H422.919V51.4545ZM420.374 46.3636H424.192V47.6364H420.374V46.3636ZM429.288 43.8182H430.56V46.3636H434.379V47.6364H430.56V52.7273H429.288V47.6364H428.015V46.3636H429.288V43.8182ZM430.56 52.7273H433.106V54H430.56V52.7273ZM433.106 51.4545H434.379V52.7273H433.106V51.4545ZM438.202 46.3636H442.02V47.6364H438.202V46.3636ZM436.929 47.6364H438.202V48.9091H442.02V47.6364H443.293V50.1818H438.202V52.7273H436.929V47.6364ZM438.202 52.7273H442.02V54H438.202V52.7273ZM442.02 51.4545H443.293V52.7273H442.02V51.4545ZM447.116 47.6364H445.843V46.3636H447.116V45.0909H448.388V46.3636H452.207V47.6364H448.388V52.7273H450.934V54H445.843V52.7273H447.116V47.6364ZM448.388 43.8182H452.207V45.0909H448.388V43.8182ZM454.757 46.3636H456.03V52.7273H454.757V46.3636ZM456.03 52.7273H458.575V54H456.03V52.7273ZM459.848 46.3636H461.121V54H459.848V52.7273H458.575V51.4545H459.848V46.3636ZM466.217 45.0909H463.671V43.8182H467.489V52.7273H470.035V54H463.671V52.7273H466.217V45.0909ZM481.499 43.8182H487.863V45.0909H482.772V47.6364H486.59V48.9091H482.772V54H481.499V43.8182ZM492.959 45.0909H490.413V43.8182H494.232V52.7273H496.777V54H490.413V52.7273H492.959V45.0909ZM501.873 47.6364H499.327V46.3636H503.146V52.7273H505.691V54H499.327V52.7273H501.873V47.6364ZM501.873 43.8182H503.146V45.0909H501.873V43.8182ZM508.241 46.3636H509.514V47.6364H510.787V48.9091H509.514V54H508.241V46.3636ZM510.787 46.3636H513.332V47.6364H510.787V46.3636ZM513.332 47.6364H514.605V54H513.332V47.6364ZM517.156 43.8182H518.428V50.1818H519.701V48.9091H520.974V51.4545H518.428V54H517.156V43.8182ZM522.246 46.3636H523.519V47.6364H522.246V46.3636ZM520.974 47.6364H522.246V48.9091H520.974V47.6364ZM520.974 51.4545H522.246V52.7273H520.974V51.4545ZM522.246 52.7273H523.519V54H522.246V52.7273ZM534.984 46.3636H536.256V48.9091H540.075V46.3636H541.347V54H540.075V50.1818H536.256V54H534.984V46.3636ZM537.529 43.8182H538.802V45.0909H537.529V43.8182ZM536.256 45.0909H537.529V46.3636H536.256V45.0909ZM538.802 45.0909H540.075V46.3636H538.802V45.0909ZM543.898 46.3636H545.17V47.6364H546.443V48.9091H545.17V51.4545H546.443V52.7273H545.17V56.5455H543.898V46.3636ZM546.443 46.3636H548.989V47.6364H546.443V46.3636ZM548.989 47.6364H550.261V52.7273H548.989V47.6364ZM546.443 52.7273H548.989V54H546.443V52.7273ZM552.812 46.3636H554.085V47.6364H555.357V48.9091H554.085V51.4545H555.357V52.7273H554.085V56.5455H552.812V46.3636ZM555.357 46.3636H557.903V47.6364H555.357V46.3636ZM557.903 47.6364H559.175V52.7273H557.903V47.6364ZM555.357 52.7273H557.903V54H555.357V52.7273Z"
    fill="#A3A3A3" />
  <path d="M24 24H279V74H24V24Z" stroke="#3D3D3D" stroke-dasharray="2 4" />
  <path
    d="M41.2727 43.8182H47.6364V45.0909H42.5455V47.6364H46.3636V48.9091H42.5455V52.7273H47.6364V54H41.2727V43.8182ZM50.1868 46.3636H51.4595V50.1818H50.1868V46.3636ZM55.2777 46.3636H56.5504V50.1818H55.2777V46.3636ZM52.7322 52.7273H51.4595V50.1818H52.7322V52.7273ZM52.7322 52.7273H54.005V54H52.7322V52.7273ZM54.005 50.1818H55.2777V52.7273H54.005V50.1818ZM60.3736 46.3636H64.1918V47.6364H60.3736V46.3636ZM59.1009 47.6364H60.3736V48.9091H64.1918V47.6364H65.4645V50.1818H60.3736V52.7273H59.1009V47.6364ZM60.3736 52.7273H64.1918V54H60.3736V52.7273ZM64.1918 51.4545H65.4645V52.7273H64.1918V51.4545ZM68.0149 46.3636H69.2876V47.6364H70.5604V48.9091H69.2876V54H68.0149V46.3636ZM70.5604 46.3636H73.1058V47.6364H70.5604V46.3636ZM73.1058 47.6364H74.3786V54H73.1058V47.6364ZM78.2017 43.8182H79.4744V46.3636H83.2926V47.6364H79.4744V52.7273H78.2017V47.6364H76.929V46.3636H78.2017V43.8182ZM79.4744 52.7273H82.0199V54H79.4744V52.7273ZM82.0199 51.4545H83.2926V52.7273H82.0199V51.4545ZM99.848 52.7273V54H96.0298V52.7273H99.848ZM96.0298 52.7273H94.7571V51.4545H96.0298V52.7273ZM99.848 46.3636V47.6364H96.0298V46.3636H99.848ZM94.7571 47.6364H96.0298V48.9091H94.7571V47.6364ZM96.0298 48.9091H99.848V50.1818H96.0298V48.9091ZM99.848 50.1818H101.121V52.7273H99.848V50.1818ZM99.848 47.6364H101.121V48.9091H99.848V47.6364ZM104.944 43.8182H106.217V46.3636H110.035V47.6364H106.217V52.7273H104.944V47.6364H103.671V46.3636H104.944V43.8182ZM106.217 52.7273H108.762V54H106.217V52.7273ZM108.762 51.4545H110.035V52.7273H108.762V51.4545ZM113.858 46.3636H117.676V47.6364H113.858V46.3636ZM112.585 47.6364H113.858V48.9091H117.676V47.6364H118.949V50.1818H113.858V52.7273H112.585V47.6364ZM113.858 52.7273H117.676V54H113.858V52.7273ZM117.676 51.4545H118.949V52.7273H117.676V51.4545ZM121.499 50.1818H122.772V52.7273H121.499V50.1818ZM122.772 52.7273H125.317V54H122.772V52.7273ZM125.317 51.4545H126.59V50.1818H122.772V48.9091H126.59V47.6364H127.863V54H126.59V52.7273H125.317V51.4545ZM122.772 46.3636H126.59V47.6364H122.772V46.3636ZM130.413 46.3636H132.959V47.6364H131.686V54H130.413V46.3636ZM132.959 47.6364H134.232V54H132.959V47.6364ZM135.504 47.6364H134.232V46.3636H135.504V47.6364ZM135.504 47.6364H136.777V54H135.504V47.6364ZM149.514 45.0909H150.787V52.7273H149.514V45.0909ZM152.06 54H150.787V52.7273H152.06V54ZM152.06 54H153.332V55.2727H152.06V54ZM152.06 42.5455H153.332V43.8182H152.06V42.5455ZM150.787 43.8182H152.06V45.0909H150.787V43.8182ZM158.428 46.3636H162.246V47.6364H158.428V46.3636ZM157.156 47.6364H158.428V48.9091H162.246V47.6364H163.519V50.1818H158.428V52.7273H157.156V47.6364ZM158.428 52.7273H162.246V54H158.428V52.7273ZM162.246 51.4545H163.519V52.7273H162.246V51.4545ZM168.615 51.4545H169.888V54H168.615V51.4545ZM176.256 46.3636H178.802V47.6364H176.256V46.3636ZM174.984 47.6364H176.256V52.7273H174.984V47.6364ZM176.256 52.7273H178.802V54H176.256V52.7273ZM176.256 55.2727H180.075V56.5455H176.256V55.2727ZM178.802 51.4545H180.075V48.9091H178.802V47.6364H180.075V46.3636H181.347V55.2727H180.075V52.7273H178.802V51.4545ZM186.443 51.4545H187.716V54H186.443V51.4545ZM195.357 51.4545H196.63V54H195.357V51.4545ZM194.085 54H195.357V55.2727H194.085V54ZM210.64 43.8182H211.913V47.6364H213.185V46.3636H214.458V48.9091H211.913V54H210.64V43.8182ZM215.731 43.8182H217.004V45.0909H215.731V43.8182ZM214.458 45.0909H215.731V46.3636H214.458V45.0909ZM215.731 51.4545H214.458V48.9091H215.731V51.4545ZM215.731 51.4545H217.004V54H215.731V51.4545ZM219.554 50.1818H220.827V52.7273H219.554V50.1818ZM220.827 52.7273H223.372V54H220.827V52.7273ZM223.372 51.4545H224.645V50.1818H220.827V48.9091H224.645V47.6364H225.918V54H224.645V52.7273H223.372V51.4545ZM220.827 46.3636H224.645V47.6364H220.827V46.3636ZM229.741 47.6364H228.468V46.3636H229.741V45.0909H231.013V46.3636H234.832V47.6364H231.013V52.7273H233.559V54H228.468V52.7273H229.741V47.6364ZM231.013 43.8182H234.832V45.0909H231.013V43.8182ZM237.382 43.8182H238.655V50.1818H239.928V48.9091H241.2V51.4545H238.655V54H237.382V43.8182ZM242.473 46.3636H243.746V47.6364H242.473V46.3636ZM241.2 47.6364H242.473V48.9091H241.2V47.6364ZM241.2 51.4545H242.473V52.7273H241.2V51.4545ZM242.473 52.7273H243.746V54H242.473V52.7273ZM246.296 50.1818H247.569V52.7273H246.296V50.1818ZM247.569 52.7273H250.114V54H247.569V52.7273ZM250.114 51.4545H251.387V50.1818H247.569V48.9091H251.387V47.6364H252.66V54H251.387V52.7273H250.114V51.4545ZM247.569 46.3636H251.387V47.6364H247.569V46.3636ZM259.028 45.0909H260.301V52.7273H259.028V45.0909ZM257.756 52.7273H259.028V54H257.756V52.7273ZM256.483 54H257.756V55.2727H256.483V54ZM256.483 42.5455H257.756V43.8182H256.483V42.5455ZM259.028 45.0909H257.756V43.8182H259.028V45.0909Z"
    fill="#A3A3A3" />
  <path
    d="M305.531 27.8182H311.894V29.0909H306.803V31.6364H310.621V32.9091H306.803V36.7273H311.894V38H305.531V27.8182ZM314.445 30.3636H315.717V34.1818H314.445V30.3636ZM319.536 30.3636H320.808V34.1818H319.536V30.3636ZM316.99 36.7273H315.717V34.1818H316.99V36.7273ZM316.99 36.7273H318.263V38H316.99V36.7273ZM318.263 34.1818H319.536V36.7273H318.263V34.1818ZM324.631 30.3636H328.45V31.6364H324.631V30.3636ZM323.359 31.6364H324.631V32.9091H328.45V31.6364H329.722V34.1818H324.631V36.7273H323.359V31.6364ZM324.631 36.7273H328.45V38H324.631V36.7273ZM328.45 35.4545H329.722V36.7273H328.45V35.4545ZM332.273 30.3636H333.545V31.6364H334.818V32.9091H333.545V38H332.273V30.3636ZM334.818 30.3636H337.364V31.6364H334.818V30.3636ZM337.364 31.6364H338.636V38H337.364V31.6364ZM342.46 27.8182H343.732V30.3636H347.55V31.6364H343.732V36.7273H342.46V31.6364H341.187V30.3636H342.46V27.8182ZM343.732 36.7273H346.278V38H343.732V36.7273ZM346.278 35.4545H347.55V36.7273H346.278V35.4545ZM355.192 36.7273V38H351.374V36.7273H355.192ZM351.374 36.7273H350.101V35.4545H351.374V36.7273ZM355.192 30.3636V31.6364H351.374V30.3636H355.192ZM350.101 31.6364H351.374V32.9091H350.101V31.6364ZM351.374 32.9091H355.192V34.1818H351.374V32.9091ZM355.192 34.1818H356.464V36.7273H355.192V34.1818ZM355.192 31.6364H356.464V32.9091H355.192V31.6364Z"
    fill="#A3A3A3" />
  <path
    d="M311.632 85.8182H312.905V92.1818H311.632V85.8182ZM312.905 92.1818H314.178V96H312.905V92.1818ZM316.723 85.8182H317.996V92.1818H316.723V85.8182ZM315.45 92.1818H316.723V96H315.45V92.1818ZM314.178 89.6364H315.45V92.1818H314.178V89.6364ZM323.092 88.3636V89.6364H324.364V90.9091H323.092V94.7273H325.637V96H320.546V94.7273H321.819V89.6364H320.546V88.3636H323.092ZM326.91 88.3636V89.6364H324.364V88.3636H326.91ZM332.006 89.6364H329.46V88.3636H333.278V94.7273H335.824V96H329.46V94.7273H332.006V89.6364ZM332.006 85.8182H333.278V87.0909H332.006V85.8182ZM339.647 85.8182H340.92V88.3636H344.738V89.6364H340.92V94.7273H339.647V89.6364H338.374V88.3636H339.647V85.8182ZM340.92 94.7273H343.465V96H340.92V94.7273ZM343.465 93.4545H344.738V94.7273H343.465V93.4545ZM348.561 88.3636H352.379V89.6364H348.561V88.3636ZM347.288 89.6364H348.561V90.9091H352.379V89.6364H353.652V92.1818H348.561V94.7273H347.288V89.6364ZM348.561 94.7273H352.379V96H348.561V94.7273ZM352.379 93.4545H353.652V94.7273H352.379V93.4545ZM365.116 88.3636H366.389V89.6364H367.662V90.9091H366.389V93.4545H367.662V94.7273H366.389V98.5455H365.116V88.3636ZM367.662 88.3636H370.207V89.6364H367.662V88.3636ZM370.207 89.6364H371.48V94.7273H370.207V89.6364ZM367.662 94.7273H370.207V96H367.662V94.7273ZM376.576 88.3636V89.6364H377.849V90.9091H376.576V94.7273H379.121V96H374.031V94.7273H375.303V89.6364H374.031V88.3636H376.576ZM380.394 88.3636V89.6364H377.849V88.3636H380.394ZM384.217 88.3636H388.036V89.6364H384.217V88.3636ZM382.945 89.6364H384.217V90.9091H388.036V89.6364H389.308V92.1818H384.217V94.7273H382.945V89.6364ZM384.217 94.7273H388.036V96H384.217V94.7273ZM388.036 93.4545H389.308V94.7273H388.036V93.4545ZM396.95 90.9091V92.1818H393.131V90.9091H396.95ZM400.773 92.1818H402.045V94.7273H400.773V92.1818ZM402.045 94.7273H404.591V96H402.045V94.7273ZM404.591 93.4545H405.864V92.1818H402.045V90.9091H405.864V89.6364H407.136V96H405.864V94.7273H404.591V93.4545ZM402.045 88.3636H405.864V89.6364H402.045V88.3636ZM410.96 88.3636H413.505V89.6364H410.96V88.3636ZM409.687 89.6364H410.96V94.7273H409.687V89.6364ZM410.96 94.7273H413.505V96H410.96V94.7273ZM410.96 97.2727H414.778V98.5455H410.96V97.2727ZM413.505 93.4545H414.778V90.9091H413.505V89.6364H414.778V88.3636H416.05V97.2727H414.778V94.7273H413.505V93.4545ZM419.874 88.3636H422.419V89.6364H419.874V88.3636ZM418.601 89.6364H419.874V94.7273H418.601V89.6364ZM419.874 94.7273H422.419V96H419.874V94.7273ZM419.874 97.2727H423.692V98.5455H419.874V97.2727ZM422.419 93.4545H423.692V90.9091H422.419V89.6364H423.692V88.3636H424.964V97.2727H423.692V94.7273H422.419V93.4545ZM430.06 88.3636V89.6364H431.333V90.9091H430.06V94.7273H432.606V96H427.515V94.7273H428.788V89.6364H427.515V88.3636H430.06ZM433.879 88.3636V89.6364H431.333V88.3636H433.879ZM437.702 88.3636H441.52V89.6364H437.702V88.3636ZM436.429 89.6364H437.702V90.9091H441.52V89.6364H442.793V92.1818H437.702V94.7273H436.429V89.6364ZM437.702 94.7273H441.52V96H437.702V94.7273ZM441.52 93.4545H442.793V94.7273H441.52V93.4545ZM446.616 88.3636H449.161V89.6364H446.616V88.3636ZM445.343 89.6364H446.616V94.7273H445.343V89.6364ZM446.616 94.7273H449.161V96H446.616V94.7273ZM446.616 97.2727H450.434V98.5455H446.616V97.2727ZM449.161 93.4545H450.434V90.9091H449.161V89.6364H450.434V88.3636H451.707V97.2727H450.434V94.7273H449.161V93.4545ZM454.257 92.1818H455.53V94.7273H454.257V92.1818ZM455.53 94.7273H458.075V96H455.53V94.7273ZM458.075 93.4545H459.348V92.1818H455.53V90.9091H459.348V89.6364H460.621V96H459.348V94.7273H458.075V93.4545ZM455.53 88.3636H459.348V89.6364H455.53V88.3636ZM464.444 85.8182H465.717V88.3636H469.535V89.6364H465.717V94.7273H464.444V89.6364H463.171V88.3636H464.444V85.8182ZM465.717 94.7273H468.262V96H465.717V94.7273ZM468.262 93.4545H469.535V94.7273H468.262V93.4545ZM473.358 88.3636H477.176V89.6364H473.358V88.3636ZM472.085 89.6364H473.358V90.9091H477.176V89.6364H478.449V92.1818H473.358V94.7273H472.085V89.6364ZM473.358 94.7273H477.176V96H473.358V94.7273ZM477.176 93.4545H478.449V94.7273H477.176V93.4545ZM486.09 85.8182H487.363V96H486.09V94.7273H484.817V93.4545H486.09V90.9091H484.817V89.6364H486.09V85.8182ZM484.817 94.7273V96H482.272V94.7273H484.817ZM482.272 94.7273H480.999V89.6364H482.272V94.7273ZM484.817 89.6364H482.272V88.3636H484.817V89.6364ZM375.303 106.364H379.121V107.636H375.303V106.364ZM374.031 107.636H375.303V108.909H379.121V107.636H380.394V110.182H375.303V112.727H374.031V107.636ZM375.303 112.727H379.121V114H375.303V112.727ZM379.121 111.455H380.394V112.727H379.121V111.455ZM382.945 106.364H384.217V110.182H382.945V106.364ZM388.036 106.364H389.308V110.182H388.036V106.364ZM385.49 112.727H384.217V110.182H385.49V112.727ZM385.49 112.727H386.763V114H385.49V112.727ZM386.763 110.182H388.036V112.727H386.763V110.182ZM393.131 106.364H396.95V107.636H393.131V106.364ZM391.859 107.636H393.131V108.909H396.95V107.636H398.222V110.182H393.131V112.727H391.859V107.636ZM393.131 112.727H396.95V114H393.131V112.727ZM396.95 111.455H398.222V112.727H396.95V111.455ZM400.773 106.364H402.045V107.636H403.318V108.909H402.045V114H400.773V106.364ZM403.318 106.364H405.864V107.636H403.318V106.364ZM405.864 107.636H407.136V114H405.864V107.636ZM410.96 103.818H412.232V106.364H416.05V107.636H412.232V112.727H410.96V107.636H409.687V106.364H410.96V103.818ZM412.232 112.727H414.778V114H412.232V112.727ZM414.778 111.455H416.05V112.727H414.778V111.455ZM423.692 112.727V114H419.874V112.727H423.692ZM419.874 112.727H418.601V111.455H419.874V112.727ZM423.692 106.364V107.636H419.874V106.364H423.692ZM418.601 107.636H419.874V108.909H418.601V107.636ZM419.874 108.909H423.692V110.182H419.874V108.909ZM423.692 110.182H424.964V112.727H423.692V110.182ZM423.692 107.636H424.964V108.909H423.692V107.636Z"
    fill="#A3A3A3" />
  <path
    d="M136.132 365.818H142.496V367.091H137.405V369.636H141.223V370.909H137.405V376H136.132V365.818ZM146.319 368.364H150.137V369.636H146.319V368.364ZM145.046 369.636H146.319V370.909H150.137V369.636H151.41V372.182H146.319V374.727H145.046V369.636ZM146.319 374.727H150.137V376H146.319V374.727ZM150.137 373.455H151.41V374.727H150.137V373.455ZM155.233 365.818H156.506V368.364H160.324V369.636H156.506V374.727H155.233V369.636H153.96V368.364H155.233V365.818ZM156.506 374.727H159.051V376H156.506V374.727ZM159.051 373.455H160.324V374.727H159.051V373.455ZM164.147 368.364H167.965V369.636H164.147V368.364ZM162.874 369.636H164.147V374.727H162.874V369.636ZM164.147 374.727H167.965V376H164.147V374.727ZM167.965 369.636H169.238V370.909H167.965V369.636ZM167.965 373.455H169.238V374.727H167.965V373.455ZM171.788 365.818H173.061V369.636H174.334V370.909H173.061V376H171.788V365.818ZM176.879 369.636H178.152V376H176.879V369.636ZM174.334 368.364H176.879V369.636H174.334V368.364ZM189.616 368.364H190.889V369.636H192.162V370.909H190.889V373.455H192.162V374.727H190.889V378.545H189.616V368.364ZM192.162 368.364H194.707V369.636H192.162V368.364ZM194.707 369.636H195.98V374.727H194.707V369.636ZM192.162 374.727H194.707V376H192.162V374.727ZM201.076 368.364V369.636H202.349V370.909H201.076V374.727H203.621V376H198.531V374.727H199.803V369.636H198.531V368.364H201.076ZM204.894 368.364V369.636H202.349V368.364H204.894ZM208.717 368.364H212.536V369.636H208.717V368.364ZM207.445 369.636H208.717V370.909H212.536V369.636H213.808V372.182H208.717V374.727H207.445V369.636ZM208.717 374.727H212.536V376H208.717V374.727ZM212.536 373.455H213.808V374.727H212.536V373.455ZM221.45 370.909V372.182H217.631V370.909H221.45ZM225.273 372.182H226.545V374.727H225.273V372.182ZM226.545 374.727H229.091V376H226.545V374.727ZM229.091 373.455H230.364V372.182H226.545V370.909H230.364V369.636H231.636V376H230.364V374.727H229.091V373.455ZM226.545 368.364H230.364V369.636H226.545V368.364ZM235.46 368.364H238.005V369.636H235.46V368.364ZM234.187 369.636H235.46V374.727H234.187V369.636ZM235.46 374.727H238.005V376H235.46V374.727ZM235.46 377.273H239.278V378.545H235.46V377.273ZM238.005 373.455H239.278V370.909H238.005V369.636H239.278V368.364H240.55V377.273H239.278V374.727H238.005V373.455ZM244.374 368.364H246.919V369.636H244.374V368.364ZM243.101 369.636H244.374V374.727H243.101V369.636ZM244.374 374.727H246.919V376H244.374V374.727ZM244.374 377.273H248.192V378.545H244.374V377.273ZM246.919 373.455H248.192V370.909H246.919V369.636H248.192V368.364H249.464V377.273H248.192V374.727H246.919V373.455ZM254.56 368.364V369.636H255.833V370.909H254.56V374.727H257.106V376H252.015V374.727H253.288V369.636H252.015V368.364H254.56ZM258.379 368.364V369.636H255.833V368.364H258.379ZM262.202 368.364H266.02V369.636H262.202V368.364ZM260.929 369.636H262.202V370.909H266.02V369.636H267.293V372.182H262.202V374.727H260.929V369.636ZM262.202 374.727H266.02V376H262.202V374.727ZM266.02 373.455H267.293V374.727H266.02V373.455ZM271.116 368.364H273.661V369.636H271.116V368.364ZM269.843 369.636H271.116V374.727H269.843V369.636ZM271.116 374.727H273.661V376H271.116V374.727ZM271.116 377.273H274.934V378.545H271.116V377.273ZM273.661 373.455H274.934V370.909H273.661V369.636H274.934V368.364H276.207V377.273H274.934V374.727H273.661V373.455ZM278.757 372.182H280.03V374.727H278.757V372.182ZM280.03 374.727H282.575V376H280.03V374.727ZM282.575 373.455H283.848V372.182H280.03V370.909H283.848V369.636H285.121V376H283.848V374.727H282.575V373.455ZM280.03 368.364H283.848V369.636H280.03V368.364ZM288.944 365.818H290.217V368.364H294.035V369.636H290.217V374.727H288.944V369.636H287.671V368.364H288.944V365.818ZM290.217 374.727H292.762V376H290.217V374.727ZM292.762 373.455H294.035V374.727H292.762V373.455ZM297.858 368.364H301.676V369.636H297.858V368.364ZM296.585 369.636H297.858V370.909H301.676V369.636H302.949V372.182H297.858V374.727H296.585V369.636ZM297.858 374.727H301.676V376H297.858V374.727ZM301.676 373.455H302.949V374.727H301.676V373.455ZM310.59 365.818H311.863V376H310.59V374.727H309.317V373.455H310.59V370.909H309.317V369.636H310.59V365.818ZM309.317 374.727V376H306.772V374.727H309.317ZM306.772 374.727H305.499V369.636H306.772V374.727ZM309.317 369.636H306.772V368.364H309.317V369.636ZM137.405 383.818H138.678V386.364H142.496V387.636H138.678V392.727H137.405V387.636H136.132V386.364H137.405V383.818ZM138.678 392.727H141.223V394H138.678V392.727ZM141.223 391.455H142.496V392.727H141.223V391.455ZM147.592 387.636H145.046V386.364H148.864V392.727H151.41V394H145.046V392.727H147.592V387.636ZM147.592 383.818H148.864V385.091H147.592V383.818ZM156.506 385.091H153.96V383.818H157.778V392.727H160.324V394H153.96V392.727H156.506V385.091ZM164.147 386.364H167.965V387.636H164.147V386.364ZM162.874 387.636H164.147V388.909H167.965V387.636H169.238V390.182H164.147V392.727H162.874V387.636ZM164.147 392.727H167.965V394H164.147V392.727ZM167.965 391.455H169.238V392.727H167.965V391.455ZM176.879 392.727V394H173.061V392.727H176.879ZM173.061 392.727H171.788V391.455H173.061V392.727ZM176.879 386.364V387.636H173.061V386.364H176.879ZM171.788 387.636H173.061V388.909H171.788V387.636ZM173.061 388.909H176.879V390.182H173.061V388.909ZM176.879 390.182H178.152V392.727H176.879V390.182ZM176.879 387.636H178.152V388.909H176.879V387.636ZM190.889 387.636H189.616V386.364H190.889V385.091H192.162V386.364H195.98V387.636H192.162V392.727H194.707V394H189.616V392.727H190.889V387.636ZM192.162 383.818H195.98V385.091H192.162V383.818ZM201.076 386.364V387.636H202.349V388.909H201.076V392.727H203.621V394H198.531V392.727H199.803V387.636H198.531V386.364H201.076ZM204.894 386.364V387.636H202.349V386.364H204.894ZM208.717 386.364H212.536V387.636H208.717V386.364ZM212.536 387.636H213.808V392.727H212.536V387.636ZM207.445 387.636H208.717V392.727H207.445V387.636ZM208.717 392.727H212.536V394H208.717V392.727ZM216.359 386.364H218.904V387.636H217.631V394H216.359V386.364ZM218.904 387.636H220.177V394H218.904V387.636ZM221.45 387.636H220.177V386.364H221.45V387.636ZM221.45 387.636H222.722V394H221.45V387.636ZM235.46 383.818H236.732V386.364H240.55V387.636H236.732V392.727H235.46V387.636H234.187V386.364H235.46V383.818ZM236.732 392.727H239.278V394H236.732V392.727ZM239.278 391.455H240.55V392.727H239.278V391.455ZM243.101 383.818H244.374V387.636H245.646V388.909H244.374V394H243.101V383.818ZM248.192 387.636H249.464V394H248.192V387.636ZM245.646 386.364H248.192V387.636H245.646V386.364ZM253.288 386.364H257.106V387.636H253.288V386.364ZM252.015 387.636H253.288V388.909H257.106V387.636H258.379V390.182H253.288V392.727H252.015V387.636ZM253.288 392.727H257.106V394H253.288V392.727ZM257.106 391.455H258.379V392.727H257.106V391.455ZM274.934 392.727V394H271.116V392.727H274.934ZM271.116 392.727H269.843V391.455H271.116V392.727ZM274.934 386.364V387.636H271.116V386.364H274.934ZM269.843 387.636H271.116V388.909H269.843V387.636ZM271.116 388.909H274.934V390.182H271.116V388.909ZM274.934 390.182H276.207V392.727H274.934V390.182ZM274.934 387.636H276.207V388.909H274.934V387.636ZM280.03 383.818H281.303V386.364H285.121V387.636H281.303V392.727H280.03V387.636H278.757V386.364H280.03V383.818ZM281.303 392.727H283.848V394H281.303V392.727ZM283.848 391.455H285.121V392.727H283.848V391.455ZM288.944 386.364H292.762V387.636H288.944V386.364ZM292.762 387.636H294.035V392.727H292.762V387.636ZM287.671 387.636H288.944V392.727H287.671V387.636ZM288.944 392.727H292.762V394H288.944V392.727ZM299.131 386.364V387.636H300.403V388.909H299.131V392.727H301.676V394H296.585V392.727H297.858V387.636H296.585V386.364H299.131ZM302.949 386.364V387.636H300.403V386.364H302.949ZM306.772 386.364H310.59V387.636H306.772V386.364ZM305.499 387.636H306.772V388.909H310.59V387.636H311.863V390.182H306.772V392.727H305.499V387.636ZM306.772 392.727H310.59V394H306.772V392.727ZM310.59 391.455H311.863V392.727H310.59V391.455Z"
    fill="#A3A3A3" />
  <path
    d="M244.417 442.364H245.69V444.909H249.508V442.364H250.781V450H249.508V446.182H245.69V450H244.417V442.364ZM246.963 439.818H248.235V441.091H246.963V439.818ZM245.69 441.091H246.963V442.364H245.69V441.091ZM248.235 441.091H249.508V442.364H248.235V441.091ZM254.604 442.364H257.15V443.636H254.604V442.364ZM253.331 443.636H254.604V448.727H253.331V443.636ZM254.604 448.727H257.15V450H254.604V448.727ZM254.604 451.273H258.422V452.545H254.604V451.273ZM257.15 447.455H258.422V444.909H257.15V443.636H258.422V442.364H259.695V451.273H258.422V448.727H257.15V447.455ZM263.518 442.364H266.064V443.636H263.518V442.364ZM262.245 443.636H263.518V448.727H262.245V443.636ZM263.518 448.727H266.064V450H263.518V448.727ZM263.518 451.273H267.336V452.545H263.518V451.273ZM266.064 447.455H267.336V444.909H266.064V443.636H267.336V442.364H268.609V451.273H267.336V448.727H266.064V447.455ZM273.705 442.364V443.636H274.978V444.909H273.705V448.727H276.25V450H271.159V448.727H272.432V443.636H271.159V442.364H273.705ZM277.523 442.364V443.636H274.978V442.364H277.523ZM281.346 442.364H285.164V443.636H281.346V442.364ZM280.074 443.636H281.346V444.909H285.164V443.636H286.437V446.182H281.346V448.727H280.074V443.636ZM281.346 448.727H285.164V450H281.346V448.727ZM285.164 447.455H286.437V448.727H285.164V447.455ZM290.26 442.364H292.806V443.636H290.26V442.364ZM288.988 443.636H290.26V448.727H288.988V443.636ZM290.26 448.727H292.806V450H290.26V448.727ZM290.26 451.273H294.078V452.545H290.26V451.273ZM292.806 447.455H294.078V444.909H292.806V443.636H294.078V442.364H295.351V451.273H294.078V448.727H292.806V447.455ZM297.902 446.182H299.174V448.727H297.902V446.182ZM299.174 448.727H301.72V450H299.174V448.727ZM301.72 447.455H302.993V446.182H299.174V444.909H302.993V443.636H304.265V450H302.993V448.727H301.72V447.455ZM299.174 442.364H302.993V443.636H299.174V442.364ZM308.088 439.818H309.361V442.364H313.179V443.636H309.361V448.727H308.088V443.636H306.816V442.364H308.088V439.818ZM309.361 448.727H311.907V450H309.361V448.727ZM311.907 447.455H313.179V448.727H311.907V447.455ZM317.002 442.364H320.821V443.636H317.002V442.364ZM315.73 443.636H317.002V444.909H320.821V443.636H322.093V446.182H317.002V448.727H315.73V443.636ZM317.002 448.727H320.821V450H317.002V448.727ZM320.821 447.455H322.093V448.727H320.821V447.455ZM334.831 439.818H336.103V442.364H339.922V443.636H336.103V448.727H334.831V443.636H333.558V442.364H334.831V439.818ZM336.103 448.727H338.649V450H336.103V448.727ZM338.649 447.455H339.922V448.727H338.649V447.455ZM345.017 443.636H342.472V442.364H346.29V448.727H348.836V450H342.472V448.727H345.017V443.636ZM345.017 439.818H346.29V441.091H345.017V439.818ZM353.931 441.091H351.386V439.818H355.204V448.727H357.75V450H351.386V448.727H353.931V441.091ZM361.573 442.364H365.391V443.636H361.573V442.364ZM360.3 443.636H361.573V444.909H365.391V443.636H366.664V446.182H361.573V448.727H360.3V443.636ZM361.573 448.727H365.391V450H361.573V448.727ZM365.391 447.455H366.664V448.727H365.391V447.455ZM374.305 448.727V450H370.487V448.727H374.305ZM370.487 448.727H369.214V447.455H370.487V448.727ZM374.305 442.364V443.636H370.487V442.364H374.305ZM369.214 443.636H370.487V444.909H369.214V443.636ZM370.487 444.909H374.305V446.182H370.487V444.909ZM374.305 446.182H375.578V448.727H374.305V446.182ZM374.305 443.636H375.578V444.909H374.305V443.636ZM226.589 464.182H227.862V466.727H226.589V464.182ZM227.862 466.727H230.407V468H227.862V466.727ZM230.407 465.455H231.68V464.182H227.862V462.909H231.68V461.636H232.953V468H231.68V466.727H230.407V465.455ZM227.862 460.364H231.68V461.636H227.862V460.364ZM235.503 460.364H236.776V461.636H238.049V462.909H236.776V468H235.503V460.364ZM238.049 460.364H240.594V461.636H238.049V460.364ZM240.594 461.636H241.867V468H240.594V461.636ZM249.508 457.818H250.781V468H249.508V466.727H248.235V465.455H249.508V462.909H248.235V461.636H249.508V457.818ZM248.235 466.727V468H245.69V466.727H248.235ZM245.69 466.727H244.417V461.636H245.69V466.727ZM248.235 461.636H245.69V460.364H248.235V461.636ZM262.245 460.364H263.518V461.636H264.791V462.909H263.518V465.455H264.791V466.727H263.518V470.545H262.245V460.364ZM264.791 460.364H267.336V461.636H264.791V460.364ZM267.336 461.636H268.609V466.727H267.336V461.636ZM264.791 466.727H267.336V468H264.791V466.727ZM273.705 460.364V461.636H274.978V462.909H273.705V466.727H276.25V468H271.159V466.727H272.432V461.636H271.159V460.364H273.705ZM277.523 460.364V461.636H274.978V460.364H277.523ZM281.346 460.364H285.164V461.636H281.346V460.364ZM285.164 461.636H286.437V466.727H285.164V461.636ZM280.074 461.636H281.346V466.727H280.074V461.636ZM281.346 466.727H285.164V468H281.346V466.727ZM288.988 460.364H290.26V464.182H288.988V460.364ZM294.078 460.364H295.351V464.182H294.078V460.364ZM291.533 466.727H290.26V464.182H291.533V466.727ZM291.533 466.727H292.806V468H291.533V466.727ZM292.806 464.182H294.078V466.727H292.806V464.182ZM300.447 461.636H297.902V460.364H301.72V466.727H304.265V468H297.902V466.727H300.447V461.636ZM300.447 457.818H301.72V459.091H300.447V457.818ZM311.907 457.818H313.179V468H311.907V466.727H310.634V465.455H311.907V462.909H310.634V461.636H311.907V457.818ZM310.634 466.727V468H308.088V466.727H310.634ZM308.088 466.727H306.816V461.636H308.088V466.727ZM310.634 461.636H308.088V460.364H310.634V461.636ZM317.002 460.364H320.821V461.636H317.002V460.364ZM315.73 461.636H317.002V462.909H320.821V461.636H322.093V464.182H317.002V466.727H315.73V461.636ZM317.002 466.727H320.821V468H317.002V466.727ZM320.821 465.455H322.093V466.727H320.821V465.455ZM334.831 461.636H333.558V460.364H334.831V459.091H336.103V460.364H339.922V461.636H336.103V466.727H338.649V468H333.558V466.727H334.831V461.636ZM336.103 457.818H339.922V459.091H336.103V457.818ZM343.745 460.364H347.563V461.636H343.745V460.364ZM342.472 461.636H343.745V462.909H347.563V461.636H348.836V464.182H343.745V466.727H342.472V461.636ZM343.745 466.727H347.563V468H343.745V466.727ZM347.563 465.455H348.836V466.727H347.563V465.455ZM351.386 464.182H352.659V466.727H351.386V464.182ZM352.659 466.727H355.204V468H352.659V466.727ZM355.204 465.455H356.477V464.182H352.659V462.909H356.477V461.636H357.75V468H356.477V466.727H355.204V465.455ZM352.659 460.364H356.477V461.636H352.659V460.364ZM361.573 457.818H362.846V460.364H366.664V461.636H362.846V466.727H361.573V461.636H360.3V460.364H361.573V457.818ZM362.846 466.727H365.391V468H362.846V466.727ZM365.391 465.455H366.664V466.727H365.391V465.455ZM369.214 460.364H370.487V466.727H369.214V460.364ZM370.487 466.727H373.032V468H370.487V466.727ZM374.305 460.364H375.578V468H374.305V466.727H373.032V465.455H374.305V460.364ZM380.674 460.364V461.636H381.946V462.909H380.674V466.727H383.219V468H378.128V466.727H379.401V461.636H378.128V460.364H380.674ZM384.492 460.364V461.636H381.946V460.364H384.492ZM388.315 460.364H392.133V461.636H388.315V460.364ZM387.042 461.636H388.315V462.909H392.133V461.636H393.406V464.182H388.315V466.727H387.042V461.636ZM388.315 466.727H392.133V468H388.315V466.727ZM392.133 465.455H393.406V466.727H392.133V465.455ZM284.531 478.364H285.803V482.182H284.531V478.364ZM289.621 478.364H290.894V482.182H289.621V478.364ZM287.076 484.727H285.803V482.182H287.076V484.727ZM287.076 484.727H288.349V486H287.076V484.727ZM288.349 482.182H289.621V484.727H288.349V482.182ZM293.445 482.182H294.717V484.727H293.445V482.182ZM294.717 484.727H297.263V486H294.717V484.727ZM297.263 483.455H298.536V482.182H294.717V480.909H298.536V479.636H299.808V486H298.536V484.727H297.263V483.455ZM294.717 478.364H298.536V479.636H294.717V478.364ZM304.904 477.091H302.359V475.818H306.177V484.727H308.722V486H302.359V484.727H304.904V477.091ZM311.273 478.364H312.545V484.727H311.273V478.364ZM312.545 484.727H315.091V486H312.545V484.727ZM316.364 478.364H317.636V486H316.364V484.727H315.091V483.455H316.364V478.364ZM321.46 478.364H325.278V479.636H321.46V478.364ZM320.187 479.636H321.46V480.909H325.278V479.636H326.55V482.182H321.46V484.727H320.187V479.636ZM321.46 484.727H325.278V486H321.46V484.727ZM325.278 483.455H326.55V484.727H325.278V483.455ZM334.192 484.727V486H330.374V484.727H334.192ZM330.374 484.727H329.101V483.455H330.374V484.727ZM334.192 478.364V479.636H330.374V478.364H334.192ZM329.101 479.636H330.374V480.909H329.101V479.636ZM330.374 480.909H334.192V482.182H330.374V480.909ZM334.192 482.182H335.464V484.727H334.192V482.182ZM334.192 479.636H335.464V480.909H334.192V479.636Z"
    fill="#A3A3A3" />
  <path d="M498 126L498 82" stroke="#3D3D3D" stroke-dasharray="2 4" />
  <path d="M300 139L300 126" stroke="#3D3D3D" stroke-dasharray="2 4" />
  <path d="M107 421L107 409" stroke="#3D3D3D" stroke-dasharray="2 4" />
  <path d="M341 406L341 362" stroke="#3D3D3D" stroke-dasharray="2 4" />
  <path d="M122 204H263V238H122V204Z" stroke="#3D3D3D" stroke-dasharray="2 4" />
  <path
    d="M132.545 214.545H136.364V215.818H133.818V226H136.364V227.273H132.545V214.545ZM140.187 217.091H141.46V220.909H142.732V222.182H141.46V224.727H140.187V217.091ZM141.46 224.727H145.278V226H141.46V224.727ZM141.46 215.818H145.278V217.091H141.46V215.818ZM145.278 217.091H146.55V224.727H145.278V219.636H144.005V218.364H145.278V217.091ZM142.732 219.636H144.005V220.909H142.732V219.636ZM154.192 224.727V226H150.374V224.727H154.192ZM150.374 224.727H149.101V223.455H150.374V224.727ZM154.192 220.909V217.091H155.464V224.727H154.192V222.182H150.374V220.909H154.192ZM150.374 220.909H149.101V217.091H150.374V220.909ZM150.374 215.818H154.192V217.091H150.374V215.818ZM160.56 223.455H161.833V226H160.56V223.455ZM160.56 218.364H161.833V220.909H160.56V218.364ZM166.929 217.091H168.202V220.909H169.474V222.182H168.202V224.727H166.929V217.091ZM168.202 224.727H172.02V226H168.202V224.727ZM168.202 215.818H172.02V217.091H168.202V215.818ZM172.02 217.091H173.293V224.727H172.02V219.636H170.747V218.364H172.02V217.091ZM169.474 219.636H170.747V220.909H169.474V219.636ZM175.843 217.091H177.116V220.909H178.388V222.182H177.116V224.727H175.843V217.091ZM177.116 224.727H180.934V226H177.116V224.727ZM177.116 215.818H180.934V217.091H177.116V215.818ZM180.934 217.091H182.207V224.727H180.934V219.636H179.661V218.364H180.934V217.091ZM178.388 219.636H179.661V220.909H178.388V219.636ZM187.303 223.455H188.575V226H187.303V223.455ZM186.03 226H187.303V227.273H186.03V226ZM205.131 218.364H202.585V217.091H205.131V215.818H206.403V224.727H208.949V226H202.585V224.727H205.131V218.364ZM211.499 217.091H212.772V220.909H214.045V222.182H212.772V224.727H211.499V217.091ZM212.772 224.727H216.59V226H212.772V224.727ZM212.772 215.818H216.59V217.091H212.772V215.818ZM216.59 217.091H217.863V224.727H216.59V219.636H215.317V218.364H216.59V217.091ZM214.045 219.636H215.317V220.909H214.045V219.636ZM222.959 223.455H224.232V226H222.959V223.455ZM222.959 218.364H224.232V220.909H222.959V218.364ZM229.327 217.091H230.6V220.909H231.873V222.182H230.6V224.727H229.327V217.091ZM230.6 224.727H234.418V226H230.6V224.727ZM230.6 215.818H234.418V217.091H230.6V215.818ZM234.418 217.091H235.691V224.727H234.418V219.636H233.146V218.364H234.418V217.091ZM231.873 219.636H233.146V220.909H231.873V219.636ZM238.241 217.091H239.514V220.909H240.787V222.182H239.514V224.727H238.241V217.091ZM239.514 224.727H243.332V226H239.514V224.727ZM239.514 215.818H243.332V217.091H239.514V215.818ZM243.332 217.091H244.605V224.727H243.332V219.636H242.06V218.364H243.332V217.091ZM240.787 219.636H242.06V220.909H240.787V219.636ZM250.974 217.091H252.246V224.727H250.974V217.091ZM249.701 224.727H250.974V226H249.701V224.727ZM248.428 226H249.701V227.273H248.428V226ZM248.428 214.545H249.701V215.818H248.428V214.545ZM250.974 217.091H249.701V215.818H250.974V217.091Z"
    fill="#A3A3A3" />
  <path d="M271 204H412V238H271V204Z" stroke="#3D3D3D" stroke-dasharray="2 4" />
  <path
    d="M281.545 214.545H285.364V215.818H282.818V226H285.364V227.273H281.545V214.545ZM291.732 218.364H289.187V217.091H291.732V215.818H293.005V224.727H295.55V226H289.187V224.727H291.732V218.364ZM298.101 217.091H299.374V220.909H300.646V222.182H299.374V224.727H298.101V217.091ZM299.374 224.727H303.192V226H299.374V224.727ZM299.374 215.818H303.192V217.091H299.374V215.818ZM303.192 217.091H304.464V224.727H303.192V219.636H301.919V218.364H303.192V217.091ZM300.646 219.636H301.919V220.909H300.646V219.636ZM309.56 223.455H310.833V226H309.56V223.455ZM309.56 218.364H310.833V220.909H309.56V218.364ZM315.929 217.091H317.202V220.909H318.474V222.182H317.202V224.727H315.929V217.091ZM317.202 224.727H321.02V226H317.202V224.727ZM317.202 215.818H321.02V217.091H317.202V215.818ZM321.02 217.091H322.293V224.727H321.02V219.636H319.747V218.364H321.02V217.091ZM318.474 219.636H319.747V220.909H318.474V219.636ZM324.843 217.091H326.116V220.909H327.388V222.182H326.116V224.727H324.843V217.091ZM326.116 224.727H329.934V226H326.116V224.727ZM326.116 215.818H329.934V217.091H326.116V215.818ZM329.934 217.091H331.207V224.727H329.934V219.636H328.661V218.364H329.934V217.091ZM327.388 219.636H328.661V220.909H327.388V219.636ZM336.303 223.455H337.575V226H336.303V223.455ZM335.03 226H336.303V227.273H335.03V226ZM354.131 218.364H351.585V217.091H354.131V215.818H355.403V224.727H357.949V226H351.585V224.727H354.131V218.364ZM363.045 218.364H360.499V217.091H363.045V215.818H364.317V224.727H366.863V226H360.499V224.727H363.045V218.364ZM371.959 223.455H373.232V226H371.959V223.455ZM371.959 218.364H373.232V220.909H371.959V218.364ZM378.327 217.091H379.6V220.909H380.873V222.182H379.6V224.727H378.327V217.091ZM379.6 224.727H383.418V226H379.6V224.727ZM379.6 215.818H383.418V217.091H379.6V215.818ZM383.418 217.091H384.691V224.727H383.418V219.636H382.146V218.364H383.418V217.091ZM380.873 219.636H382.146V220.909H380.873V219.636ZM387.241 217.091H388.514V220.909H389.787V222.182H388.514V224.727H387.241V217.091ZM388.514 224.727H392.332V226H388.514V224.727ZM388.514 215.818H392.332V217.091H388.514V215.818ZM392.332 217.091H393.605V224.727H392.332V219.636H391.06V218.364H392.332V217.091ZM389.787 219.636H391.06V220.909H389.787V219.636ZM399.974 217.091H401.246V224.727H399.974V217.091ZM398.701 224.727H399.974V226H398.701V224.727ZM397.428 226H398.701V227.273H397.428V226ZM397.428 214.545H398.701V215.818H397.428V214.545ZM399.974 217.091H398.701V215.818H399.974V217.091Z"
    fill="#A3A3A3" />
  <path d="M420 204H561V238H420V204Z" stroke="#3D3D3D" stroke-dasharray="2 4" />
  <path
    d="M430.545 214.545H434.364V215.818H431.818V226H434.364V227.273H430.545V214.545ZM440.732 218.364H438.187V217.091H440.732V215.818H442.005V224.727H444.55V226H438.187V224.727H440.732V218.364ZM449.646 218.364H447.101V217.091H449.646V215.818H450.919V224.727H453.464V226H447.101V224.727H449.646V218.364ZM458.56 223.455H459.833V226H458.56V223.455ZM458.56 218.364H459.833V220.909H458.56V218.364ZM464.929 217.091H466.202V220.909H467.474V222.182H466.202V224.727H464.929V217.091ZM466.202 224.727H470.02V226H466.202V224.727ZM466.202 215.818H470.02V217.091H466.202V215.818ZM470.02 217.091H471.293V224.727H470.02V219.636H468.747V218.364H470.02V217.091ZM467.474 219.636H468.747V220.909H467.474V219.636ZM473.843 217.091H475.116V220.909H476.388V222.182H475.116V224.727H473.843V217.091ZM475.116 224.727H478.934V226H475.116V224.727ZM475.116 215.818H478.934V217.091H475.116V215.818ZM478.934 217.091H480.207V224.727H478.934V219.636H477.661V218.364H478.934V217.091ZM476.388 219.636H477.661V220.909H476.388V219.636ZM485.303 223.455H486.575V226H485.303V223.455ZM484.03 226H485.303V227.273H484.03V226ZM503.131 218.364H500.585V217.091H503.131V215.818H504.403V224.727H506.949V226H500.585V224.727H503.131V218.364ZM509.499 223.455H510.772V224.727H515.863V226H509.499V223.455ZM514.59 217.091H510.772V215.818H514.59V217.091ZM514.59 217.091H515.863V219.636H514.59V217.091ZM510.772 222.182H512.045V223.455H510.772V222.182ZM509.499 217.091H510.772V218.364H509.499V217.091ZM513.317 219.636H514.59V220.909H513.317V219.636ZM512.045 220.909H513.317V222.182H512.045V220.909ZM520.959 223.455H522.232V226H520.959V223.455ZM520.959 218.364H522.232V220.909H520.959V218.364ZM527.327 217.091H528.6V220.909H529.873V222.182H528.6V224.727H527.327V217.091ZM528.6 224.727H532.418V226H528.6V224.727ZM528.6 215.818H532.418V217.091H528.6V215.818ZM532.418 217.091H533.691V224.727H532.418V219.636H531.146V218.364H532.418V217.091ZM529.873 219.636H531.146V220.909H529.873V219.636ZM536.241 217.091H537.514V220.909H538.787V222.182H537.514V224.727H536.241V217.091ZM537.514 224.727H541.332V226H537.514V224.727ZM537.514 215.818H541.332V217.091H537.514V215.818ZM541.332 217.091H542.605V224.727H541.332V219.636H540.06V218.364H541.332V217.091ZM538.787 219.636H540.06V220.909H538.787V219.636ZM548.974 217.091H550.246V224.727H548.974V217.091ZM547.701 224.727H548.974V226H547.701V224.727ZM546.428 226H547.701V227.273H546.428V226ZM546.428 214.545H547.701V215.818H546.428V214.545ZM548.974 217.091H547.701V215.818H548.974V217.091Z"
    fill="#A3A3A3" />
  <path d="M122 254H263V288H122V254Z" stroke="#3D3D3D" stroke-dasharray="2 4" />
  <path
    d="M132.545 264.545H136.364V265.818H133.818V276H136.364V277.273H132.545V264.545ZM140.187 267.091H141.46V270.909H142.732V272.182H141.46V274.727H140.187V267.091ZM141.46 274.727H145.278V276H141.46V274.727ZM141.46 265.818H145.278V267.091H141.46V265.818ZM145.278 267.091H146.55V274.727H145.278V269.636H144.005V268.364H145.278V267.091ZM142.732 269.636H144.005V270.909H142.732V269.636ZM154.192 274.727V276H150.374V274.727H154.192ZM150.374 274.727H149.101V273.455H150.374V274.727ZM154.192 270.909V267.091H155.464V274.727H154.192V272.182H150.374V270.909H154.192ZM150.374 270.909H149.101V267.091H150.374V270.909ZM150.374 265.818H154.192V267.091H150.374V265.818ZM160.56 273.455H161.833V276H160.56V273.455ZM160.56 268.364H161.833V270.909H160.56V268.364ZM166.929 267.091H168.202V270.909H169.474V272.182H168.202V274.727H166.929V267.091ZM168.202 274.727H172.02V276H168.202V274.727ZM168.202 265.818H172.02V267.091H168.202V265.818ZM172.02 267.091H173.293V274.727H172.02V269.636H170.747V268.364H172.02V267.091ZM169.474 269.636H170.747V270.909H169.474V269.636ZM175.843 267.091H177.116V270.909H178.388V272.182H177.116V274.727H175.843V267.091ZM177.116 274.727H180.934V276H177.116V274.727ZM177.116 265.818H180.934V267.091H177.116V265.818ZM180.934 267.091H182.207V274.727H180.934V269.636H179.661V268.364H180.934V267.091ZM178.388 269.636H179.661V270.909H178.388V269.636ZM187.303 273.455H188.575V276H187.303V273.455ZM186.03 276H187.303V277.273H186.03V276ZM205.131 268.364H202.585V267.091H205.131V265.818H206.403V274.727H208.949V276H202.585V274.727H205.131V268.364ZM211.499 267.091H212.772V270.909H214.045V272.182H212.772V274.727H211.499V267.091ZM212.772 274.727H216.59V276H212.772V274.727ZM212.772 265.818H216.59V267.091H212.772V265.818ZM216.59 267.091H217.863V274.727H216.59V269.636H215.317V268.364H216.59V267.091ZM214.045 269.636H215.317V270.909H214.045V269.636ZM222.959 273.455H224.232V276H222.959V273.455ZM222.959 268.364H224.232V270.909H222.959V268.364ZM229.327 267.091H230.6V270.909H231.873V272.182H230.6V274.727H229.327V267.091ZM230.6 274.727H234.418V276H230.6V274.727ZM230.6 265.818H234.418V267.091H230.6V265.818ZM234.418 267.091H235.691V274.727H234.418V269.636H233.146V268.364H234.418V267.091ZM231.873 269.636H233.146V270.909H231.873V269.636ZM238.241 267.091H239.514V270.909H240.787V272.182H239.514V274.727H238.241V267.091ZM239.514 274.727H243.332V276H239.514V274.727ZM239.514 265.818H243.332V267.091H239.514V265.818ZM243.332 267.091H244.605V274.727H243.332V269.636H242.06V268.364H243.332V267.091ZM240.787 269.636H242.06V270.909H240.787V269.636ZM250.974 267.091H252.246V274.727H250.974V267.091ZM249.701 274.727H250.974V276H249.701V274.727ZM248.428 276H249.701V277.273H248.428V276ZM248.428 264.545H249.701V265.818H248.428V264.545ZM250.974 267.091H249.701V265.818H250.974V267.091Z"
    fill="#A3A3A3" />
  <path d="M271 254H412V288H271V254Z" stroke="#3D3D3D" stroke-dasharray="2 4" />
  <path
    d="M281.545 264.545H285.364V265.818H282.818V276H285.364V277.273H281.545V264.545ZM291.732 268.364H289.187V267.091H291.732V265.818H293.005V274.727H295.55V276H289.187V274.727H291.732V268.364ZM298.101 267.091H299.374V270.909H300.646V272.182H299.374V274.727H298.101V267.091ZM299.374 274.727H303.192V276H299.374V274.727ZM299.374 265.818H303.192V267.091H299.374V265.818ZM303.192 267.091H304.464V274.727H303.192V269.636H301.919V268.364H303.192V267.091ZM300.646 269.636H301.919V270.909H300.646V269.636ZM309.56 273.455H310.833V276H309.56V273.455ZM309.56 268.364H310.833V270.909H309.56V268.364ZM315.929 267.091H317.202V270.909H318.474V272.182H317.202V274.727H315.929V267.091ZM317.202 274.727H321.02V276H317.202V274.727ZM317.202 265.818H321.02V267.091H317.202V265.818ZM321.02 267.091H322.293V274.727H321.02V269.636H319.747V268.364H321.02V267.091ZM318.474 269.636H319.747V270.909H318.474V269.636ZM324.843 267.091H326.116V270.909H327.388V272.182H326.116V274.727H324.843V267.091ZM326.116 274.727H329.934V276H326.116V274.727ZM326.116 265.818H329.934V267.091H326.116V265.818ZM329.934 267.091H331.207V274.727H329.934V269.636H328.661V268.364H329.934V267.091ZM327.388 269.636H328.661V270.909H327.388V269.636ZM336.303 273.455H337.575V276H336.303V273.455ZM335.03 276H336.303V277.273H335.03V276ZM354.131 268.364H351.585V267.091H354.131V265.818H355.403V274.727H357.949V276H351.585V274.727H354.131V268.364ZM363.045 268.364H360.499V267.091H363.045V265.818H364.317V274.727H366.863V276H360.499V274.727H363.045V268.364ZM371.959 273.455H373.232V276H371.959V273.455ZM371.959 268.364H373.232V270.909H371.959V268.364ZM378.327 267.091H379.6V270.909H380.873V272.182H379.6V274.727H378.327V267.091ZM379.6 274.727H383.418V276H379.6V274.727ZM379.6 265.818H383.418V267.091H379.6V265.818ZM383.418 267.091H384.691V274.727H383.418V269.636H382.146V268.364H383.418V267.091ZM380.873 269.636H382.146V270.909H380.873V269.636ZM387.241 267.091H388.514V270.909H389.787V272.182H388.514V274.727H387.241V267.091ZM388.514 274.727H392.332V276H388.514V274.727ZM388.514 265.818H392.332V267.091H388.514V265.818ZM392.332 267.091H393.605V274.727H392.332V269.636H391.06V268.364H392.332V267.091ZM389.787 269.636H391.06V270.909H389.787V269.636ZM399.974 267.091H401.246V274.727H399.974V267.091ZM398.701 274.727H399.974V276H398.701V274.727ZM397.428 276H398.701V277.273H397.428V276ZM397.428 264.545H398.701V265.818H397.428V264.545ZM399.974 267.091H398.701V265.818H399.974V267.091Z"
    fill="#A3A3A3" />
  <path d="M420 254H561V288H420V254Z" stroke="#3D3D3D" stroke-dasharray="2 4" />
  <path
    d="M430.545 264.545H434.364V265.818H431.818V276H434.364V277.273H430.545V264.545ZM440.732 268.364H438.187V267.091H440.732V265.818H442.005V274.727H444.55V276H438.187V274.727H440.732V268.364ZM449.646 268.364H447.101V267.091H449.646V265.818H450.919V274.727H453.464V276H447.101V274.727H449.646V268.364ZM458.56 273.455H459.833V276H458.56V273.455ZM458.56 268.364H459.833V270.909H458.56V268.364ZM464.929 267.091H466.202V270.909H467.474V272.182H466.202V274.727H464.929V267.091ZM466.202 274.727H470.02V276H466.202V274.727ZM466.202 265.818H470.02V267.091H466.202V265.818ZM470.02 267.091H471.293V274.727H470.02V269.636H468.747V268.364H470.02V267.091ZM467.474 269.636H468.747V270.909H467.474V269.636ZM473.843 267.091H475.116V270.909H476.388V272.182H475.116V274.727H473.843V267.091ZM475.116 274.727H478.934V276H475.116V274.727ZM475.116 265.818H478.934V267.091H475.116V265.818ZM478.934 267.091H480.207V274.727H478.934V269.636H477.661V268.364H478.934V267.091ZM476.388 269.636H477.661V270.909H476.388V269.636ZM485.303 273.455H486.575V276H485.303V273.455ZM484.03 276H485.303V277.273H484.03V276ZM503.131 268.364H500.585V267.091H503.131V265.818H504.403V274.727H506.949V276H500.585V274.727H503.131V268.364ZM509.499 273.455H510.772V274.727H515.863V276H509.499V273.455ZM514.59 267.091H510.772V265.818H514.59V267.091ZM514.59 267.091H515.863V269.636H514.59V267.091ZM510.772 272.182H512.045V273.455H510.772V272.182ZM509.499 267.091H510.772V268.364H509.499V267.091ZM513.317 269.636H514.59V270.909H513.317V269.636ZM512.045 270.909H513.317V272.182H512.045V270.909ZM520.959 273.455H522.232V276H520.959V273.455ZM520.959 268.364H522.232V270.909H520.959V268.364ZM527.327 267.091H528.6V270.909H529.873V272.182H528.6V274.727H527.327V267.091ZM528.6 274.727H532.418V276H528.6V274.727ZM528.6 265.818H532.418V267.091H528.6V265.818ZM532.418 267.091H533.691V274.727H532.418V269.636H531.146V268.364H532.418V267.091ZM529.873 269.636H531.146V270.909H529.873V269.636ZM536.241 267.091H537.514V270.909H538.787V272.182H537.514V274.727H536.241V267.091ZM537.514 274.727H541.332V276H537.514V274.727ZM537.514 265.818H541.332V267.091H537.514V265.818ZM541.332 267.091H542.605V274.727H541.332V269.636H540.06V268.364H541.332V267.091ZM538.787 269.636H540.06V270.909H538.787V269.636ZM548.974 267.091H550.246V274.727H548.974V267.091ZM547.701 274.727H548.974V276H547.701V274.727ZM546.428 276H547.701V277.273H546.428V276ZM546.428 264.545H547.701V265.818H546.428V264.545ZM548.974 267.091H547.701V265.818H548.974V267.091Z"
    fill="#A3A3A3" />
  <path d="M40 204H101V238H40V204Z" stroke="#A3A3A3" stroke-dasharray="2 4" />
  <path
    d="M49.2727 215.818H50.5455V219.636H51.8182V218.364H53.0909V220.909H50.5455V226H49.2727V215.818ZM54.3636 215.818H55.6364V217.091H54.3636V215.818ZM53.0909 217.091H54.3636V218.364H53.0909V217.091ZM54.3636 223.455H53.0909V220.909H54.3636V223.455ZM54.3636 223.455H55.6364V226H54.3636V223.455ZM58.1868 215.818H64.5504V217.091H59.4595V219.636H63.2777V220.909H59.4595V224.727H64.5504V226H58.1868V215.818ZM67.1009 215.818H68.3736V219.636H67.1009V215.818ZM72.1918 215.818H73.4645V219.636H72.1918V215.818ZM69.6463 220.909H70.919V226H69.6463V220.909ZM68.3736 219.636H69.6463V220.909H68.3736V219.636ZM70.919 219.636H72.1918V220.909H70.919V219.636ZM84.929 218.364H86.2017V220.909H90.0199V218.364H91.2926V226H90.0199V222.182H86.2017V226H84.929V218.364ZM87.4744 215.818H88.7472V217.091H87.4744V215.818ZM86.2017 217.091H87.4744V218.364H86.2017V217.091ZM88.7472 217.091H90.0199V218.364H88.7472V217.091Z"
    fill="#FAFAFA" />
  <path d="M40 254H101V288H40V254Z" stroke="#A3A3A3" stroke-dasharray="2 4" />
  <path
    d="M49.2727 265.818H50.5455V269.636H51.8182V268.364H53.0909V270.909H50.5455V276H49.2727V265.818ZM54.3636 265.818H55.6364V267.091H54.3636V265.818ZM53.0909 267.091H54.3636V268.364H53.0909V267.091ZM54.3636 273.455H53.0909V270.909H54.3636V273.455ZM54.3636 273.455H55.6364V276H54.3636V273.455ZM58.1868 265.818H64.5504V267.091H59.4595V269.636H63.2777V270.909H59.4595V274.727H64.5504V276H58.1868V265.818ZM67.1009 265.818H68.3736V269.636H67.1009V265.818ZM72.1918 265.818H73.4645V269.636H72.1918V265.818ZM69.6463 270.909H70.919V276H69.6463V270.909ZM68.3736 269.636H69.6463V270.909H68.3736V269.636ZM70.919 269.636H72.1918V270.909H70.919V269.636ZM84.929 265.818H90.0199V267.091H86.2017V269.636H90.0199V270.909H86.2017V274.727H90.0199V276H84.929V265.818ZM90.0199 270.909H91.2926V274.727H90.0199V270.909ZM90.0199 267.091H91.2926V269.636H90.0199V267.091Z"
    fill="#FAFAFA" />
  <path d="M320 304H363V338H320V304Z" stroke="#3D3D3D" stroke-dasharray="2 4" />
  <path
    d="M331.818 323.455H333.091V326H331.818V323.455ZM340.732 323.455H342.005V326H340.732V323.455ZM349.646 323.455H350.919V326H349.646V323.455Z"
    fill="#A3A3A3" />
  <path d="M258 354H24V175H181.988" stroke="#3D3D3D" stroke-dasharray="2 4" />
  <path d="M181 154H420V188H181V154Z" stroke="#A3A3A3" stroke-dasharray="2 4" />
  <path
    d="M190.273 165.818H195.364V167.091H191.545V174.727H195.364V176H190.273V165.818ZM195.364 167.091H196.636V174.727H195.364V167.091ZM199.187 172.182H200.46V174.727H199.187V172.182ZM200.46 174.727H203.005V176H200.46V174.727ZM203.005 173.455H204.278V172.182H200.46V170.909H204.278V169.636H205.55V176H204.278V174.727H203.005V173.455ZM200.46 168.364H204.278V169.636H200.46V168.364ZM209.374 165.818H210.646V168.364H214.464V169.636H210.646V174.727H209.374V169.636H208.101V168.364H209.374V165.818ZM210.646 174.727H213.192V176H210.646V174.727ZM213.192 173.455H214.464V174.727H213.192V173.455ZM217.015 172.182H218.288V174.727H217.015V172.182ZM218.288 174.727H220.833V176H218.288V174.727ZM220.833 173.455H222.106V172.182H218.288V170.909H222.106V169.636H223.379V176H222.106V174.727H220.833V173.455ZM218.288 168.364H222.106V169.636H218.288V168.364ZM231.02 174.727V176H227.202V174.727H231.02ZM227.202 174.727H225.929V173.455H227.202V174.727ZM231.02 168.364V169.636H227.202V168.364H231.02ZM225.929 169.636H227.202V170.909H225.929V169.636ZM227.202 170.909H231.02V172.182H227.202V170.909ZM231.02 172.182H232.293V174.727H231.02V172.182ZM231.02 169.636H232.293V170.909H231.02V169.636ZM236.116 165.818H237.388V168.364H241.207V169.636H237.388V174.727H236.116V169.636H234.843V168.364H236.116V165.818ZM237.388 174.727H239.934V176H237.388V174.727ZM239.934 173.455H241.207V174.727H239.934V173.455ZM245.03 168.364H248.848V169.636H245.03V168.364ZM248.848 169.636H250.121V174.727H248.848V169.636ZM243.757 169.636H245.03V174.727H243.757V169.636ZM245.03 174.727H248.848V176H245.03V174.727ZM255.217 168.364V169.636H256.489V170.909H255.217V174.727H257.762V176H252.671V174.727H253.944V169.636H252.671V168.364H255.217ZM259.035 168.364V169.636H256.489V168.364H259.035ZM262.858 168.364H266.676V169.636H262.858V168.364ZM261.585 169.636H262.858V170.909H266.676V169.636H267.949V172.182H262.858V174.727H261.585V169.636ZM262.858 174.727H266.676V176H262.858V174.727ZM266.676 173.455H267.949V174.727H266.676V173.455ZM274.317 167.091H275.59V169.636H274.317V167.091ZM270.499 174.727H271.772V177.273H270.499V174.727ZM271.772 172.182H273.045V174.727H271.772V172.182ZM273.045 169.636H274.317V172.182H273.045V169.636ZM275.59 164.545H276.863V167.091H275.59V164.545ZM279.413 165.818H280.686V169.636H281.959V168.364H283.232V170.909H280.686V176H279.413V165.818ZM284.504 165.818H285.777V167.091H284.504V165.818ZM283.232 167.091H284.504V168.364H283.232V167.091ZM284.504 173.455H283.232V170.909H284.504V173.455ZM284.504 173.455H285.777V176H284.504V173.455ZM289.6 168.364H293.418V169.636H289.6V168.364ZM288.327 169.636H289.6V170.909H293.418V169.636H294.691V172.182H289.6V174.727H288.327V169.636ZM289.6 174.727H293.418V176H289.6V174.727ZM293.418 173.455H294.691V174.727H293.418V173.455ZM297.241 168.364H298.514V172.182H297.241V168.364ZM302.332 168.364H303.605V172.182H302.332V168.364ZM299.787 174.727H301.06V177.273H299.787V174.727ZM299.787 177.273V178.545H297.241V177.273H299.787ZM301.06 172.182H302.332V174.727H301.06V172.182ZM298.514 172.182H299.787V174.727H298.514V172.182ZM311.246 170.909V172.182H307.428V170.909H311.246ZM317.615 174.727H316.342V172.182H317.615V174.727ZM317.615 174.727H318.888V176H317.615V174.727ZM315.07 165.818H316.342V172.182H315.07V165.818ZM320.161 165.818H321.433V172.182H320.161V165.818ZM318.888 172.182H320.161V174.727H318.888V172.182ZM323.984 172.182H325.256V174.727H323.984V172.182ZM325.256 174.727H327.802V176H325.256V174.727ZM327.802 173.455H329.075V172.182H325.256V170.909H329.075V169.636H330.347V176H329.075V174.727H327.802V173.455ZM325.256 168.364H329.075V169.636H325.256V168.364ZM335.443 167.091H332.898V165.818H336.716V174.727H339.261V176H332.898V174.727H335.443V167.091ZM341.812 168.364H343.085V174.727H341.812V168.364ZM343.085 174.727H345.63V176H343.085V174.727ZM346.903 168.364H348.175V176H346.903V174.727H345.63V173.455H346.903V168.364ZM351.999 168.364H355.817V169.636H351.999V168.364ZM350.726 169.636H351.999V170.909H355.817V169.636H357.089V172.182H351.999V174.727H350.726V169.636ZM351.999 174.727H355.817V176H351.999V174.727ZM355.817 173.455H357.089V174.727H355.817V173.455ZM368.554 167.091H369.827V169.636H368.554V167.091ZM369.827 169.636H373.645V170.909H369.827V169.636ZM373.645 174.727V176H369.827V174.727H373.645ZM369.827 174.727H368.554V173.455H369.827V174.727ZM373.645 170.909H374.918V174.727H373.645V170.909ZM369.827 165.818H373.645V167.091H369.827V165.818ZM373.645 167.091H374.918V168.364H373.645V167.091ZM378.741 165.818H380.013V168.364H383.832V169.636H380.013V174.727H378.741V169.636H377.468V168.364H378.741V165.818ZM380.013 174.727H382.559V176H380.013V174.727ZM382.559 173.455H383.832V174.727H382.559V173.455ZM387.655 168.364H391.473V169.636H387.655V168.364ZM391.473 169.636H392.746V174.727H391.473V169.636ZM386.382 169.636H387.655V174.727H386.382V169.636ZM387.655 174.727H391.473V176H387.655V174.727ZM397.842 168.364V169.636H399.114V170.909H397.842V174.727H400.387V176H395.296V174.727H396.569V169.636H395.296V168.364H397.842ZM401.66 168.364V169.636H399.114V168.364H401.66ZM405.483 168.364H409.301V169.636H405.483V168.364ZM404.21 169.636H405.483V170.909H409.301V169.636H410.574V172.182H405.483V174.727H404.21V169.636ZM405.483 174.727H409.301V176H405.483V174.727ZM409.301 173.455H410.574V174.727H409.301V173.455Z"
    fill="#A3A3A3" />
  <path d="M257 354H577V175H421.23" stroke="#3D3D3D" stroke-dasharray="2 4" />
  <path d="M300 146L294.804 138.5L305.196 138.5L300 146Z" fill="#3D3D3D" />
  <path d="M107 428L101.804 420.5L112.196 420.5L107 428Z" fill="#3D3D3D" />
  <path d="M24 436H190V486H24V436Z" stroke="#A3A3A3" stroke-dasharray="2 4" />
  <path
    d="M41.2727 457.091H42.5455V464.727H41.2727V457.091ZM42.5455 464.727H46.3636V466H42.5455V464.727ZM46.3636 463.455H47.6364V464.727H46.3636V463.455ZM42.5455 455.818H46.3636V457.091H42.5455V455.818ZM46.3636 457.091H47.6364V458.364H46.3636V457.091ZM50.1868 455.818H51.4595V459.636H55.2777V455.818H56.5504V466H55.2777V460.909H51.4595V466H50.1868V455.818ZM59.1009 455.818H64.1918V457.091H60.3736V460.909H64.1918V463.455H62.919V462.182H60.3736V466H59.1009V455.818ZM64.1918 457.091H65.4645V460.909H64.1918V457.091ZM64.1918 463.455H65.4645V466H64.1918V463.455ZM68.0149 457.091H69.2876V464.727H68.0149V457.091ZM69.2876 464.727H73.1058V466H69.2876V464.727ZM73.1058 457.091H74.3786V464.727H73.1058V457.091ZM69.2876 455.818H73.1058V457.091H69.2876V455.818ZM76.929 455.818H78.2017V458.364H79.4744V459.636H78.2017V466H76.929V455.818ZM82.0199 462.182H80.7472V460.909H82.0199V455.818H83.2926V466H82.0199V462.182ZM80.7472 460.909H79.4744V459.636H80.7472V460.909ZM85.843 457.091H87.1158V464.727H85.843V457.091ZM87.1158 464.727H90.9339V466H87.1158V464.727ZM90.9339 457.091H92.2067V464.727H90.9339V457.091ZM87.1158 455.818H90.9339V457.091H87.1158V455.818ZM94.7571 455.818H96.0298V458.364H97.3026V459.636H96.0298V466H94.7571V455.818ZM99.848 462.182H98.5753V460.909H99.848V455.818H101.121V466H99.848V462.182ZM98.5753 460.909H97.3026V459.636H98.5753V460.909ZM112.585 455.818H118.949V457.091H113.858V459.636H117.676V460.909H113.858V466H112.585V455.818ZM121.499 455.818H127.863V457.091H122.772V459.636H126.59V460.909H122.772V464.727H127.863V466H121.499V455.818ZM130.413 455.818H136.777V457.091H134.232V466H132.959V457.091H130.413V455.818ZM139.327 457.091H140.6V464.727H139.327V457.091ZM140.6 464.727H144.418V466H140.6V464.727ZM144.418 463.455H145.691V464.727H144.418V463.455ZM140.6 455.818H144.418V457.091H140.6V455.818ZM144.418 457.091H145.691V458.364H144.418V457.091ZM148.241 455.818H149.514V459.636H153.332V455.818H154.605V466H153.332V460.909H149.514V466H148.241V455.818ZM157.156 455.818H163.519V457.091H158.428V459.636H162.246V460.909H158.428V464.727H163.519V466H157.156V455.818ZM166.07 455.818H171.161V457.091H167.342V460.909H171.161V463.455H169.888V462.182H167.342V466H166.07V455.818ZM171.161 457.091H172.433V460.909H171.161V457.091ZM171.161 463.455H172.433V466H171.161V463.455Z"
    fill="#FAFAFA" />
  <path d="M430 436H578V486H430V436Z" stroke="#A3A3A3" stroke-dasharray="2 4" />
  <path
    d="M447.273 455.818H448.545V464.727H447.273V455.818ZM448.545 464.727H452.364V466H448.545V464.727ZM452.364 455.818H453.636V464.727H452.364V455.818ZM456.187 457.091H457.46V459.636H456.187V457.091ZM457.46 459.636H461.278V460.909H457.46V459.636ZM461.278 464.727V466H457.46V464.727H461.278ZM457.46 464.727H456.187V463.455H457.46V464.727ZM461.278 460.909H462.55V464.727H461.278V460.909ZM457.46 455.818H461.278V457.091H457.46V455.818ZM461.278 457.091H462.55V458.364H461.278V457.091ZM465.101 455.818H471.464V457.091H466.374V459.636H470.192V460.909H466.374V464.727H471.464V466H465.101V455.818ZM474.015 455.818H479.106V457.091H475.288V460.909H479.106V463.455H477.833V462.182H475.288V466H474.015V455.818ZM479.106 457.091H480.379V460.909H479.106V457.091ZM479.106 463.455H480.379V466H479.106V463.455ZM486.747 457.091H488.02V459.636H486.747V457.091ZM482.929 464.727H484.202V467.273H482.929V464.727ZM484.202 462.182H485.474V464.727H484.202V462.182ZM485.474 459.636H486.747V462.182H485.474V459.636ZM488.02 454.545H489.293V457.091H488.02V454.545ZM491.843 455.818H493.116V458.364H494.388V459.636H493.116V466H491.843V455.818ZM496.934 459.636H495.661V458.364H496.934V455.818H498.207V466H496.934V459.636ZM494.388 459.636H495.661V462.182H494.388V459.636ZM500.757 455.818H502.03V464.727H507.121V466H500.757V455.818ZM518.585 455.818H519.858V458.364H521.131V459.636H519.858V466H518.585V455.818ZM523.676 459.636H522.403V458.364H523.676V455.818H524.949V466H523.676V459.636ZM521.131 459.636H522.403V462.182H521.131V459.636ZM527.499 457.091H528.772V464.727H527.499V457.091ZM528.772 464.727H532.59V466H528.772V464.727ZM532.59 457.091H533.863V464.727H532.59V457.091ZM528.772 455.818H532.59V457.091H528.772V455.818ZM536.413 455.818H541.504V457.091H537.686V464.727H541.504V466H536.413V455.818ZM541.504 457.091H542.777V464.727H541.504V457.091ZM545.327 455.818H551.691V457.091H546.6V459.636H550.418V460.909H546.6V464.727H551.691V466H545.327V455.818ZM554.241 455.818H555.514V464.727H560.605V466H554.241V455.818Z"
    fill="#FAFAFA" />
</svg>